<svg height="700pt" preserveAspectRatio="xMidYMid meet" viewBox="0 0 700 700" width="700pt" xmlns="http://www.w3.org/2000/svg"><g transform="matrix(.1 0 0 -.1 0 700)"><path d="m3460 6693c-41-21-359-177-815-398-93-45-267-130-385-188s-288-141-378-184c-119-59-159-83-150-90 13-10 182-93 583-288 105-51 294-143 420-205 127-62 349-171 495-243 146-71 270-130 275-130 6 0 85 36 175 80 91 45 271 133 400 196 378 184 637 311 910 444 140 69 265 129 278 134 12 5 22 12 22 17 0 4-100 56-222 116-123 60-329 160-458 224-129 63-311 152-405 197-163 79-592 288-665 325-34 16-36 16-80-7z"/><path d="m1604 5651c3-9 7-38 11-66 5-46 18-123 30-185 3-14 8-41 11-60s13-62 21-95 16-69 18-80c8-53 72-275 124-433 140-424 352-892 686-1517 85-159 125-234 150-280 15-27 52-97 82-155 31-58 59-109 63-115 27-36 327-644 396-800 209-480 346-933 380-1255 2-25 7-56 9-70 4-22 12-106 19-208 2-17 5-35 9-38 5-5 69 22 272 116 33 16 206 94 385 175 375 170 409 185 508 231 40 19 75 34 77 34s34 14 72 32c37 17 120 55 183 84l115 52 1 79c2 66-14 215-30 288-41 192-148 461-266 665-23 41-54 95-68 120-48 87-256 394-433 642-98 138-179 254-179 258 0 5-4 10-8 12-5 2-28 32-53 68-24 36-46 67-49 70-19 18-290 435-290 445 0 3-12 24-27 48-33 51-44 71-119 217-147 285-224 501-284 800-11 52-14 56-58 77-26 12-182 88-347 169-165 80-385 188-490 239-223 109-557 272-773 377-103 51-151 70-148 59z"/><path d="m5180 5553c-266-131-699-343-885-433-638-309-676-328-671-352 25-114 59-247 81-313 77-235 249-581 405-816 22-33 40-62 40-64 0-5 84-128 197-290 103-148 112-160 117-154 29 33 496 969 496 994 0 4 13 35 30 71 66 144 187 468 245 659 71 234 118 438 159 690 12 73 15 115 8 114-4 0-104-48-222-106z"/><path d="m2488 2678c-219-316-324-481-425-668-184-339-274-636-277-918l-1-72 145-66c80-36 168-76 195-89 50-23 93-42 195-88 30-13 80-36 110-50 91-43 962-437 965-437 5 0-5 134-21 260-7 57-39 233-59 327-37 174-151 531-220 693-13 30-44 102-69 160-59 140-119 268-228 485-121 242-265 515-272 515-1 0-18-24-38-52z"/></g></svg>