<?xml version="1.0" encoding="UTF-8" standalone="no"?>
<svg width="59px" height="97px" viewBox="0 0 59 97" version="1.1" xmlns="http://www.w3.org/2000/svg" xmlns:xlink="http://www.w3.org/1999/xlink">
    <!-- Generator: Sketch 45.2 (43514) - http://www.bohemiancoding.com/sketch -->
    <title>Logo</title>
    <desc>Created with Sketch.</desc>
    <defs>
        <polygon id="path-1" points="58.7356289 0.235254876 0.000765823888 0.235254876 0.000765823888 30.6368929 58.7356289 30.6368929 58.7356289 0.235254876"></polygon>
        <polygon id="path-3" points="56.8212607 0.792322759 56.8212607 83.1422853 0.832559165 83.1422853 0.832559165 0.792322759 56.8212607 0.792322759"></polygon>
        <polygon id="path-5" points="0 0.792023909 0 83.1421908 55.9888298 83.1421908 55.9888298 0.792023909 0 0.792023909"></polygon>
    </defs>
    <g id="Page-1" stroke="none" stroke-width="1" fill="none" fill-rule="evenodd">
        <g id="Shaderview-ANA" transform="translate(-109.000000, -46.000000)">
            <g id="Group-9" transform="translate(109.000000, 45.000000)">
                <g id="Logo" style="mix-blend-mode: screen;">
                    <g id="Page-1">
                        <polygon id="Fill-1" fill="#535456" points="1.43620697 16.1455705 29.368676 2.36190226 57.2992305 16.1455705 29.368676 29.9292386"></polygon>
                        <g id="Group-19" transform="translate(0.000000, 0.709544)">
                            <g id="Group-4">
                                <mask id="mask-2" fill="white">
                                    <use xlink:href="#path-1"></use>
                                </mask>
                                <g id="Clip-3"></g>
                                <path d="M4.64740227,15.4360266 L29.3681974,27.6352674 L54.0880352,15.4360266 L29.3681974,3.23678586 L4.64740227,15.4360266 Z M29.3681974,30.6368929 C29.1489803,30.6368929 28.9278486,30.5868185 28.7258626,30.4876147 L0.794350828,16.7039465 C0.308052659,16.4639676 0.000765823888,15.9726723 0.000765823888,15.4360266 C0.000765823888,14.899381 0.308052659,14.4080856 0.794350828,14.1681068 L28.7258626,0.38443859 C29.1298347,0.185086065 29.6065601,0.185086065 30.0105322,0.38443859 L57.9420439,14.1681068 C58.4283421,14.4080856 58.7356289,14.899381 58.7356289,15.4360266 C58.7356289,15.9726723 58.4283421,16.4639676 57.9420439,16.7039465 L30.0105322,30.4876147 C29.8085461,30.5868185 29.5883718,30.6368929 29.3681974,30.6368929 L29.3681974,30.6368929 Z" id="Fill-2" fill="#FEFEFE" mask="url(#mask-2)"></path>
                            </g>
                            <polyline id="Fill-5" fill="#535456" points="54.5063665 83.4227961 29.3681974 94.9521746 4.22907097 83.4227961"></polyline>
                            <path d="M29.3683888,96.3694671 C29.1616164,96.3694671 28.9548439,96.3250615 28.763388,96.2371953 L3.62426155,84.7078168 C2.9043871,84.378082 2.59327114,83.5353216 2.92736181,82.8257778 C3.26240976,82.1152891 4.11821796,81.8091744 4.8342633,82.1379643 L29.3683888,93.389572 L53.9015571,82.1379643 C54.6185597,81.8091744 55.4743679,82.1152891 55.8084586,82.8257778 C56.1425493,83.5353216 55.8314333,84.378082 55.1115588,84.7078168 L29.9733897,96.2371953 C29.7819337,96.3250615 29.5751613,96.3694671 29.3683888,96.3694671" id="Fill-7" fill="#FEFEFE"></path>
                            <path d="M4.22954961,83.4227961 C3.01188963,64.4332871 26.6748905,49.9485782 29.368676,29.2196948 L57.2992305,15.4360266 C54.6073595,47.0300951 29.368676,67.1231289 29.368676,94.9521746 L4.22954961,83.4227961 Z" id="Fill-9" fill="#535456"></path>
                            <g id="Group-13" transform="translate(1.914560, 13.227182)">
                                <mask id="mask-4" fill="white">
                                    <use xlink:href="#path-3"></use>
                                </mask>
                                <g id="Clip-12"></g>
                                <path d="M3.71156548,69.2729239 L26.0678793,79.5268242 C26.6834103,66.0511603 32.8569081,54.4858795 39.3740694,42.2790803 C45.5351226,30.7374194 51.89529,18.8244527 53.6854033,4.63168665 L28.7712377,16.9272969 C27.25012,26.7928849 21.2833946,35.1675805 15.5090825,43.2730086 C9.33558466,51.9387022 3.49330567,60.1386101 3.71156548,69.2729239 M27.4540206,83.1425688 C27.2482054,83.1425688 27.041433,83.099108 26.8490197,83.010297 L1.70989329,71.4809185 C1.23221064,71.2617252 0.915351003,70.8034978 0.881846207,70.2848033 C0.210793025,59.8192681 6.50012171,50.9901243 13.1599177,41.6432308 C18.8806221,33.6143315 24.7946971,25.3114405 26.0286309,15.8124344 C26.0908541,15.3438143 26.3837817,14.9356612 26.8116858,14.7249711 L54.7431976,0.941302942 C55.2074783,0.713606456 55.7607861,0.748564008 56.1906047,1.03483801 C56.6204234,1.32300162 56.8597433,1.81713133 56.8166657,2.32826743 C55.4611575,18.2263951 48.5744861,31.1257317 41.9146901,43.5999089 C35.216603,56.1468356 28.8899404,67.9974457 28.8899404,81.7253707 C28.8899404,82.2091077 28.639133,82.6597766 28.2255881,82.9195963 C27.9910546,83.0679297 27.7230162,83.1425688 27.4540206,83.1425688" id="Fill-11" fill="#FEFEFE" mask="url(#mask-4)"></path>
                            </g>
                            <path d="M54.5063665,83.4227961 C55.7249838,64.4332871 32.0610256,49.9485782 29.3681974,29.2196948 L1.43668561,15.4360266 C4.12951386,47.0300951 29.3681974,67.1231289 29.3681974,94.9521746 L54.5063665,83.4227961 Z" id="Fill-14" fill="#535456"></path>
                            <g id="Group-18" transform="translate(0.000000, 13.227182)">
                                <mask id="mask-6" fill="white">
                                    <use xlink:href="#path-5"></use>
                                </mask>
                                <g id="Clip-17"></g>
                                <path d="M54.5063665,70.1956143 L54.5159393,70.1956143 L54.5063665,70.1956143 Z M3.13585737,4.63130873 C4.92597071,18.8240748 11.2870954,30.7370415 17.4481486,42.2787024 C23.9653099,54.4855016 30.1388077,66.0507824 30.7543386,79.5264462 L53.1096952,69.272546 C53.327955,60.1382322 47.4866333,51.9392691 41.3131355,43.2745202 C35.5388234,35.1681474 29.5711407,26.7934518 28.0509803,16.926919 L3.13585737,4.63130873 Z M29.3681974,83.1421908 C29.0992017,83.1421908 28.8311634,83.0675518 28.5966298,82.9201632 C28.1830849,82.6593987 27.9322776,82.2096745 27.9322776,81.7249928 C27.9322776,67.9970677 21.605615,56.1464577 14.9075278,43.6004758 C8.24773182,31.1253538 1.36010323,18.2260172 0.00459494333,2.32788951 C-0.0384826504,1.81675341 0.200837315,1.32356849 0.630655972,1.03540489 C1.06238919,0.748186088 1.61569695,0.713228536 2.07806312,0.940925022 L30.0105322,14.7245932 C30.4384363,14.9362281 30.7313639,15.3434364 30.7935871,15.8120565 C32.0265636,25.3110626 37.9415958,33.6139536 43.6623003,41.6437977 C50.321139,50.9906912 56.6114249,59.819835 55.9394145,70.2853702 C55.9059097,70.8040647 55.58905,71.262292 55.1113674,71.4805405 L29.9731983,83.009919 C29.780785,83.0987301 29.5740126,83.1421908 29.3681974,83.1421908 L29.3681974,83.1421908 Z" id="Fill-16" fill="#FEFEFE" mask="url(#mask-6)"></path>
                            </g>
                        </g>
                    </g>
                </g>
            </g>
        </g>
    </g>
</svg>